<svg width="80" height="94" viewBox="0 0 80 94" fill="none" xmlns="http://www.w3.org/2000/svg">
<path d="M1.96138 92.3474H23.9012V67.3687V67.2953V67.296C23.8598 66.717 24.1736 66.1722 24.6945 65.9164L38.4294 59.1915L38.4286 51.6346C38.4286 45.0309 37.6586 38.4497 36.1344 32.0232C33.4675 31.7937 31.9442 30.7294 30.5834 29.7857C29.2227 28.8421 28.0429 28.0081 25.5815 28.0081C23.1202 28.0081 21.9447 28.8319 20.5796 29.7857C19.0438 30.8595 17.3047 32.0763 13.9461 32.0763C10.5875 32.0763 8.84847 30.8558 7.31266 29.7857C6.15537 28.9721 5.13039 28.2623 3.34389 28.0647C1.12889 35.7276 0.00353358 43.6636 0 51.6412V90.3878C0.000726616 91.4703 0.878319 92.3478 1.96077 92.3486L1.96138 92.3474Z" fill="#403233"/>
<path d="M77.5205 82.5389C77.5176 83.9373 78.6044 85.0961 80 85.1833V79.9004C78.6066 79.9876 77.5213 81.1427 77.5205 82.5391V82.5389Z" fill="#403233"/>
<path d="M34.0518 88.3638C34.5087 88.3638 34.9199 88.0885 35.095 87.6664C35.2694 87.2443 35.1728 86.759 34.8495 86.4357C34.5262 86.1132 34.0402 86.0173 33.6181 86.1924C33.1967 86.3682 32.9221 86.7801 32.9229 87.237C32.9236 87.8596 33.4292 88.3638 34.0518 88.3638Z" fill="#403233"/>
<path d="M33.297 74.0099C33.297 74.2598 32.9229 74.2598 32.9229 74.0099C32.9229 73.7607 33.297 73.7607 33.297 74.0099Z" fill="#403233"/>
<path d="M9.8545 7.52653H29.3971C30.4635 7.52581 31.3281 6.66131 31.3296 5.59403V1.9325C31.3281 0.866026 30.4636 0.00148782 29.3971 0H9.03992C7.97345 0.00145305 7.10891 0.865951 7.10742 1.9325V5.59403C7.10887 6.66123 7.97337 7.52579 9.03992 7.52653H9.8545Z" fill="#403233"/>
<path d="M58.7703 58.8118C57.9508 58.8125 57.1648 59.1387 56.585 59.7185C56.0046 60.2982 55.6784 61.0835 55.6769 61.9037C55.6777 62.171 55.6021 62.434 55.459 62.66L61.8687 61.9989V61.903V61.9037C61.8673 61.0828 61.5396 60.2967 60.9592 59.717C60.378 59.1372 59.5912 58.8118 58.7702 58.8118L58.7703 58.8118Z" fill="#403233"/>
<path d="M8.94464 27.443C10.3075 28.3968 11.4851 29.2207 13.9443 29.2207C16.4042 29.2207 17.5839 28.399 18.9467 27.443C20.4825 26.3692 22.2238 25.1525 25.5802 25.1525C28.9365 25.1525 30.6778 26.3729 32.2136 27.443C33.1842 28.12 34.0604 28.7303 35.3665 29.0274C33.575 22.5284 31.0163 16.2662 27.7444 10.3719H10.6882C8.0525 15.1289 5.87972 20.1271 4.19922 25.2989C6.37349 25.6527 7.72406 26.5928 8.94464 27.4427V27.443Z" fill="#403233"/>
<path d="M33.126 64.9603L53.2209 62.8898C52.9623 62.6261 52.817 62.2723 52.8141 61.9032C52.793 59.7914 53.8944 57.8262 55.7077 56.7438C57.521 55.6607 59.773 55.6222 61.6227 56.6421C63.4724 57.6628 64.6406 59.588 64.6914 61.6998L77.9968 60.3289L69.2908 52.7553C68.8527 53.3685 68.18 53.7717 67.4325 53.8705C66.6857 53.9686 65.9316 53.7535 65.3497 53.2748C64.7671 52.7968 64.4096 52.0986 64.361 51.3467C64.313 50.5948 64.5782 49.8567 65.0947 49.3075L33.126 64.9603Z" fill="#403233"/>
<path d="M69.0159 68.6203C69.066 68.6203 69.111 68.5905 69.1306 68.544C69.1495 68.4975 69.1394 68.4445 69.1038 68.4089C69.0682 68.3733 69.0144 68.3624 68.9686 68.382C68.9221 68.4009 68.8916 68.4466 68.8916 68.4968C68.8909 68.5294 68.904 68.5614 68.9272 68.5847C68.9512 68.6079 68.9824 68.621 69.0159 68.6203H69.0159Z" fill="#403233"/>
<path d="M26.7485 93.9431L79.9996 88.451V88.0238C78.0374 88.0238 76.2241 86.9769 75.2434 85.2776C74.262 83.5784 74.262 81.4846 75.2434 79.7855C76.2242 78.0863 78.0374 77.0394 79.9996 77.0394V62.9835L26.7485 68.4756V93.9431ZM69.0158 65.7711C69.7386 65.7711 70.4324 66.0588 70.9431 66.5703C71.4545 67.0817 71.7415 67.7748 71.7415 68.4975C71.7415 69.2211 71.4538 69.9142 70.9423 70.4248C70.4309 70.9363 69.7371 71.2232 69.0143 71.2225C68.2915 71.2225 67.5984 70.9348 67.087 70.4234C66.5763 69.9119 66.2893 69.2182 66.2901 68.4954C66.2908 67.7725 66.5785 67.0802 67.0899 66.5695C67.6006 66.0588 68.2937 65.7719 69.0157 65.7711L69.0158 65.7711ZM55.1554 74.1969C56.3156 74.1969 57.4286 74.6582 58.2495 75.4784C59.0697 76.2993 59.531 77.4116 59.531 78.5725C59.531 79.7327 59.0697 80.8457 58.2495 81.6666C57.4286 82.4868 56.3157 82.9481 55.1554 82.9481C53.9945 82.9481 52.8822 82.4868 52.0613 81.6666C51.2411 80.8457 50.7798 79.7328 50.7798 78.5725C50.7812 77.4123 51.2425 76.3008 52.0627 75.4799C52.8836 74.6597 53.9952 74.1984 55.1553 74.1969L55.1554 74.1969ZM33.1095 70.9727C33.9145 70.9727 34.6867 71.2924 35.2555 71.8619C35.8251 72.4308 36.1447 73.203 36.1447 74.0079C36.1447 74.8129 35.8251 75.5844 35.2555 76.1539C34.6867 76.7228 33.9145 77.0424 33.1095 77.0424C32.3046 77.0424 31.5331 76.7228 30.9635 76.1539C30.3947 75.5844 30.0751 74.8129 30.0751 74.0079C30.0758 73.203 30.3962 72.4315 30.965 71.8627C31.5338 71.2939 32.3054 70.9735 33.1095 70.9727H33.1095ZM34.0511 83.2568H34.0518C35.1059 83.2568 36.1165 83.6752 36.8625 84.4206C37.6078 85.1652 38.027 86.1758 38.0285 87.2298C38.0292 88.2832 37.6122 89.2951 36.8675 90.0412C36.1236 90.7873 35.1138 91.2079 34.0597 91.2101C33.0055 91.2123 31.9936 90.796 31.2467 90.0529C30.4992 89.3097 30.0778 88.2999 30.0749 87.2457C30.0735 86.1894 30.4912 85.1759 31.2373 84.4285C31.9826 83.681 32.9954 83.2596 34.0517 83.2589L34.0511 83.2568Z" fill="#403233"/>
<path d="M56.6835 78.5739C56.6835 79.4174 55.9991 80.1017 55.1557 80.1017C54.3115 80.1017 53.6279 79.4173 53.6279 78.5739C53.6279 77.7297 54.3116 77.0461 55.1557 77.0461C55.9992 77.0461 56.6835 77.7298 56.6835 78.5739Z" fill="#403233"/>
<path d="M67.2118 51.1552C67.2132 51.1043 67.1835 51.0585 67.137 51.0389C67.0905 51.0186 67.0367 51.0288 67.0011 51.0644C66.9648 51.1 66.9539 51.153 66.9735 51.1995C66.9924 51.2467 67.0374 51.2772 67.0883 51.2772C67.1558 51.2772 67.2111 51.2227 67.2118 51.1552Z" fill="#403233"/>
</svg>
