<svg width="95" height="80" viewBox="0 0 95 80" fill="none" xmlns="http://www.w3.org/2000/svg">
<path fill-rule="evenodd" clip-rule="evenodd" d="M67.9987 15.0948C82.9135 18.6485 92.1124 27.9158 95 43.4905C78.5045 41.1205 68.3134 32.4398 65.1041 16.7827C63.4374 15.6443 61.6226 14.5747 59.7323 13.8537C59.7808 15.5924 59.777 17.4178 59.7632 19.2945C61.0361 19.4428 62.2854 19.6738 63.5032 19.9847C66.6462 31.6495 73.8471 39.3197 84.5417 43.2658C87.1052 60.3921 73.8906 75.9152 56.4508 75.9152C53.4595 75.9152 50.5785 75.4527 47.8738 74.5971C54.4983 68.9425 58.704 60.534 58.704 51.1424V48.2167H28.053C28.0458 47.9785 28.0425 47.7442 28.0425 47.5061C28.0425 31.9844 40.4942 19.3701 55.9541 19.1076C55.9988 12.0383 55.9128 5.87264 53.2561 3.29798C51.4584 1.54865 54.1189 -1.18733 55.9162 0.561858C58.2487 2.82491 59.1871 6.34445 59.5526 10.5706C62.5924 11.4781 65.4454 13.2377 67.9951 15.0941L67.9987 15.0948ZM27.8905 51.1427H0C0 66.5486 12.4863 79.0331 27.8905 79.0331C43.2922 79.0331 55.7781 66.5468 55.7781 51.1427H27.8905ZM40.3597 58.9231C40.3597 58.9231 46.5012 62.2458 43.3681 64.0744C40.4489 65.779 40.3597 58.9231 40.3597 58.9231ZM27.8387 62.3114C27.8387 62.3114 31.4959 68.2594 27.8662 68.2803C24.4851 68.2941 27.8387 62.3114 27.8387 62.3114ZM15.3005 58.9888C15.3005 58.9888 15.4935 65.9687 12.3439 64.171C9.4077 62.4939 15.3005 58.9888 15.3005 58.9888ZM3.09036 52.6577C3.09036 65.9169 14.8005 76.5372 27.8251 76.5372C40.8185 76.5372 52.6911 66.0075 52.6911 52.7241H49.5344C49.5344 64.2754 39.0907 73.3801 27.8255 73.3801C16.5327 73.3801 6.25214 64.1889 6.25214 52.6577H3.09036ZM40.1798 27.3119C42.0289 26.5324 43.2124 29.3439 41.3634 30.1241C39.0139 31.1175 37.727 33.9782 37.8545 36.4276C37.9581 38.4321 34.9078 38.5876 34.808 36.583C34.615 32.8359 36.6334 28.813 40.1797 27.3124L40.1798 27.3119Z" fill="#403233"/>
</svg>
