<svg width="83" height="63" viewBox="0 0 83 63" fill="none" xmlns="http://www.w3.org/2000/svg">
<path d="M20.5227 54.7271H54.7275C60.7683 54.7338 66.6423 52.7414 71.4319 49.0607C76.2219 45.3794 79.6594 40.2169 81.2079 34.3778C82.7568 28.5385 82.3293 22.3505 79.993 16.7805C77.6561 11.2094 73.5417 6.568 68.2913 3.5805C63.0409 0.593154 56.9487 -0.572857 50.9661 0.263851C44.9833 1.10126 39.4458 3.89511 35.217 8.20905C32.0286 11.4242 25.9951 13.6818 20.5224 13.6818C13.1903 13.6818 6.41529 17.5934 2.74995 23.9432C-0.916649 30.2931 -0.916649 38.1163 2.74995 44.4661C6.41592 50.8159 13.1909 54.7275 20.5224 54.7275L20.5227 54.7271ZM20.5227 19.1541C27.5556 19.1541 34.8612 16.3492 39.1161 12.012C44.2534 6.78848 51.6643 4.4821 58.8587 5.86671C66.0533 7.25079 72.0788 12.1433 74.9111 18.9005C77.7433 25.6578 77.0079 33.3838 72.9504 39.4843C68.8935 45.5857 62.0532 49.2523 54.7261 49.254H20.5213C15.1444 49.254 10.1763 46.3856 7.48756 41.7289C4.7995 37.0722 4.7995 31.3355 7.48756 26.6788C10.1763 22.0221 15.1446 19.1538 20.5213 19.1538L20.5227 19.1541Z" fill="#403233"/>
<path d="M58.8322 27.3632C58.8322 29.6299 56.9943 31.4678 54.7276 31.4678C52.461 31.4678 50.623 29.6299 50.623 27.3632C50.623 25.0966 52.461 23.2587 54.7276 23.2587C56.9943 23.2587 58.8322 25.0966 58.8322 27.3632Z" fill="#403233"/>
<path d="M20.523 46.5179H54.7277C61.1362 46.5081 67.1148 43.2942 70.6582 37.9545C74.202 32.6149 74.8403 25.8576 72.3599 19.9491C69.8795 14.0402 64.6083 9.76331 58.3152 8.55336C52.0222 7.34341 45.541 9.36023 41.0463 13.9278C36.326 18.7715 28.2538 21.8908 20.5234 21.8908C16.1244 21.8908 12.059 24.2375 9.85953 28.0477C7.6601 31.8578 7.6601 36.5512 9.85953 40.3614C12.059 44.1715 16.1244 46.5182 20.5234 46.5182L20.523 46.5179ZM54.7277 20.5223C56.5419 20.5223 58.2819 21.243 59.5653 22.5256C60.848 23.8089 61.5687 25.5491 61.5687 27.3632C61.5687 29.1774 60.8479 30.9174 59.5653 32.2009C58.2821 33.4835 56.5419 34.2042 54.7277 34.2042C52.9136 34.2042 51.1736 33.4835 49.8901 32.2009C48.6075 30.9176 47.8868 29.1774 47.8868 27.3632C47.8868 25.5491 48.6075 23.8091 49.8901 22.5256C51.1734 21.243 52.9136 20.5223 54.7277 20.5223Z" fill="#403233"/>
<path d="M54.7274 57.4634H20.5227C16.4004 57.4604 12.3526 56.3609 8.79469 54.2794C5.23676 52.1972 2.29586 49.2072 0.273438 45.6152C1.03511 50.4394 3.49299 54.834 7.20477 58.009C10.9159 61.184 15.6381 62.9309 20.5227 62.9364H54.7274C61.0358 62.9376 67.1504 60.7594 72.037 56.7703C76.9234 52.7811 80.2816 47.2259 81.5435 41.0447C79.0215 45.9872 75.182 50.1365 70.4496 53.0341C65.717 55.9311 60.2762 57.4642 54.7271 57.463L54.7274 57.4634Z" fill="#403233"/>
</svg>
