<svg width="75" height="92" viewBox="0 0 75 92" fill="none" xmlns="http://www.w3.org/2000/svg">
<path d="M45.2924 7.94153V9.70266C45.2924 10.3632 45.1486 11.0266 44.8747 11.6258L41.953 18.0554C41.4897 19.0722 41.244 20.2003 41.244 21.3218C41.244 24.5643 43.2769 27.5231 46.3013 28.6871L47.5428 29.1648L48.707 26.1426L47.464 25.6649C45.6812 24.9791 44.4831 23.2338 44.4831 21.3216C44.4831 20.6611 44.6269 19.9977 44.9008 19.3985L47.8225 12.9689C48.2858 11.9521 48.53 10.824 48.53 9.70248V7.94134C48.53 5.29636 47.2155 2.84359 45.0157 1.37596L42.9533 0L41.1582 2.69346L43.2206 4.06942C44.5171 4.93517 45.2925 6.38195 45.2925 7.94153H45.2924Z" fill="#403233"/>
<path d="M58.2426 17.6541V19.4152C58.2426 20.0757 58.0988 20.7391 57.8249 21.3383L54.9032 27.7679C54.4399 28.7847 54.1942 29.9128 54.1942 31.0343C54.1942 34.2768 56.227 37.2356 59.2515 38.3996L60.493 38.8773L61.6572 35.8551L60.4142 35.3774C58.6314 34.6916 57.4333 32.9463 57.4333 31.0341C57.4333 30.3736 57.5771 29.7102 57.851 29.111L60.7727 22.6814C61.236 21.6646 61.4802 20.5365 61.4802 19.415V17.6539C61.4802 15.0089 60.1657 12.5561 57.9659 11.0885L55.9035 9.71252L54.1084 12.406L56.1708 13.7819C57.4673 14.6477 58.2427 16.0945 58.2427 17.6541H58.2426Z" fill="#403233"/>
<path d="M71.1928 7.94153V9.70266C71.1928 10.3632 71.049 11.0266 70.7751 11.6258L67.8534 18.0554C67.3901 19.0722 67.1444 20.2003 67.1444 21.3218C67.1444 24.5643 69.1772 27.5231 72.2017 28.6871L73.4432 29.1648L74.6074 26.1426L73.3644 25.6649C71.5816 24.9791 70.3835 23.2338 70.3835 21.3216C70.3835 20.6611 70.5273 19.9977 70.8012 19.3985L73.7229 12.9689C74.1862 11.9521 74.4304 10.824 74.4304 9.70248V7.94134C74.4304 5.29636 73.1159 2.84359 70.9161 1.37596L68.8537 0L67.0586 2.69346L69.121 4.06942C70.4175 4.93517 71.1929 6.38195 71.1929 7.94153H71.1928Z" fill="#403233"/>
<path d="M37.0968 46.6735C36.7455 43.6073 35.405 40.7678 33.2261 38.5297C33.0823 38.8693 32.9233 39.2046 32.7405 39.5255L28.6567 46.6735L37.0968 46.6735Z" fill="#403233"/>
<path d="M56.6237 72.574C57.5169 72.574 58.2424 71.8484 58.2424 70.9552V49.9111H42.0547V62.8613C42.0547 63.7545 42.7803 64.4801 43.6735 64.4801C44.5667 64.4801 45.2922 63.7545 45.2922 62.8613V58.005C45.2922 55.3275 47.471 53.1487 50.1486 53.1487C52.8261 53.1487 55.0049 55.3275 55.0049 58.005V70.9552C55.0049 71.8484 55.7305 72.574 56.6237 72.574Z" fill="#403233"/>
<path d="M10.2235 27.0151C9.87875 28.5464 9.67929 30.1089 9.67929 31.6742C9.67929 35.8716 10.9093 39.9365 13.2376 43.4262L15.4012 46.6739H24.9274L29.9297 37.921C30.4479 37.0097 30.7232 35.977 30.7232 34.9314C30.7232 33.494 30.2087 32.1036 29.2728 31.011C28.2091 29.7695 27.094 28.5799 25.9492 27.4236C29.0654 20.9853 30.7232 13.8288 30.7232 6.67737V4.58591H27.4857V6.67737C27.4857 12.5714 26.2796 18.4683 23.996 23.9028C22.727 15.7149 19.5602 7.86398 14.7429 1.11785L14.2363 0.407471L11.5993 2.28858L12.1073 3.00042C16.251 8.80063 19.1034 15.4679 20.4729 22.4535C17.6061 20.1258 14.5551 18.0243 11.324 16.1778L11.0877 16.0434C10.4886 15.7001 9.6792 16.1727 9.6792 16.8557V17.1194C9.6792 17.2199 9.6951 17.3218 9.72618 17.4172L10.6599 20.2191C12.0033 24.2451 14.2992 27.9581 17.2983 30.9594L15.0097 33.2481C13.1532 31.3923 11.5488 29.2849 10.2234 27.0151L10.2235 27.0151ZM25.8671 33.7237H22.6296V30.4861H25.8671V33.7237Z" fill="#403233"/>
<path d="M71.1098 35.4236C64.4114 36.0595 58.6596 40.4353 56.23 46.674H65.5835C68.7328 43.7052 70.7 39.7016 71.1098 35.4236Z" fill="#403233"/>
<path d="M48.2748 46.6735H52.7979C53.3305 45.0237 54.0539 43.475 54.9428 42.0455C51.8982 38.232 47.5564 35.8681 42.7471 35.4202C43.1597 39.6998 45.126 43.7048 48.2748 46.6735Z" fill="#403233"/>
<path d="M61.48 59.6237H72.656C72.9956 58.5635 73.2891 57.4852 73.5333 56.3861H61.48L61.48 59.6237Z" fill="#403233"/>
<path d="M61.4801 53.1487H74.1065C74.246 52.082 74.3479 51.0038 74.3948 49.9111H61.48L61.4801 53.1487Z" fill="#403233"/>
<path d="M61.4803 70.9551C61.4803 73.6326 59.3016 75.8114 56.624 75.8114C53.9465 75.8114 51.7677 73.6326 51.7677 70.9551V58.0049C51.7677 57.1117 51.0421 56.3861 50.1489 56.3861C49.2557 56.3861 48.5301 57.1117 48.5301 58.0049V62.8612C48.5301 65.5388 46.3514 67.7175 43.6738 67.7175C40.9963 67.7175 38.8175 65.5388 38.8175 62.8612H2.94727C8.62889 76.1692 21.8379 85.5241 37.1987 85.5241C52.5595 85.5241 65.7669 76.1692 71.4502 62.8612H61.4802L61.4803 70.9551Z" fill="#403233"/>
<path d="M21.0107 85.3724V92H53.3863V85.3724C48.4245 87.547 42.953 88.7624 37.1985 88.7624C31.444 88.7624 25.9725 87.5469 21.0107 85.3724Z" fill="#403233"/>
<path d="M38.8173 56.3862H8.06058V53.1487H38.8173V49.9111H0C0.0469741 51.0038 0.148872 52.082 0.288347 53.1487H4.8224V56.3862H0.862967C1.10723 57.4854 1.40062 58.5637 1.74029 59.6238H38.8167L38.8173 56.3862Z" fill="#403233"/>
</svg>
