<svg width="81" height="95" viewBox="0 0 81 95" fill="none" xmlns="http://www.w3.org/2000/svg">
<path d="M61.7145 44.2695C61.7523 42.3026 61.8477 40.4598 61.971 38.7594C61.8663 38.7594 61.7622 38.7501 61.6575 38.7402C61.4011 38.7209 61.1353 38.6832 60.869 38.6355C60.5747 38.5785 60.2706 38.5122 59.9856 38.4168C59.8524 40.1456 59.7669 41.9887 59.7199 43.9748C58.3614 43.8038 56.8981 43.6898 55.3309 43.6328H55.2547C55.1215 43.6328 54.9983 43.6421 54.875 43.652C54.8372 41.3246 54.7418 39.1676 54.59 37.1822C54.0486 37.3439 53.488 37.4579 52.9181 37.5049C52.8134 37.5142 52.7093 37.5241 52.6046 37.5241C52.7471 39.4432 52.8418 41.5234 52.8703 43.7753C47.0374 44.2504 42.3627 45.6752 38.9526 48.0217C39.1614 48.6771 39.3801 49.3517 39.5795 50.0356C41.2799 55.6598 42.838 62.2721 44.1778 68.7325C45.1566 73.4541 46.0207 78.0902 46.7331 82.175C46.8848 83.0491 47.0273 83.9039 47.1698 84.7211C48.1863 85.234 49.1937 85.6044 50.1817 85.8324C51.9199 86.2406 53.4308 90.3638 54.0955 94.0119C54.2002 94.5818 54.7038 95 55.2923 95C55.8715 95 56.3751 94.5818 56.4798 94.0119C57.1451 90.3638 58.6554 86.2406 60.3936 85.8324C69.0675 83.79 79.2142 70.366 78.0827 58.9178C77.6268 54.1882 74.7766 46.5687 61.7138 44.2698L61.7145 44.2695ZM60.755 79.7615C60.5747 79.9039 60.356 79.9702 60.1466 79.9702C59.8425 79.9702 59.5482 79.837 59.3488 79.5713C59.0068 79.1346 59.1016 78.4977 59.539 78.1651C65.4196 73.6714 69.8562 65.7575 70.3216 58.9084C70.3594 58.3577 70.8345 57.9395 71.3951 57.9773C71.9458 58.0151 72.364 58.4995 72.3262 59.0508C71.8232 66.4332 67.0632 74.9453 60.7551 79.7614L60.755 79.7615Z" fill="#403233"/>
<path d="M36.9103 22.0389C37.9077 22.7798 38.1926 24.1768 37.5657 25.288C36.9958 26.3046 36.7294 27.4636 36.7964 28.642C36.9673 31.7864 39.5611 34.3424 42.7055 34.4749C43.7413 34.5127 44.7764 34.304 45.6983 33.848C46.0309 33.6863 46.4014 33.6009 46.7625 33.6009C47.3232 33.6009 47.8739 33.7911 48.3298 34.1516C49.4888 35.0826 50.9328 35.5578 52.4246 35.5008C51.0661 21.2981 43.9123 11.1038 44.3113 10.734C44.7103 10.3542 52.9661 20.2627 54.4099 35.1021C56.4623 34.3135 58.0104 32.4514 58.3237 30.2095C58.3999 29.6396 58.4092 29.0597 58.333 28.4998C58.2667 27.9961 58.3522 27.5024 58.5802 27.0465C59.0169 26.1817 59.2356 25.2413 59.2356 24.2724C59.2356 22.6097 58.5894 21.0803 57.4873 19.9498C57.4396 19.912 57.4019 19.8736 57.3641 19.8265C57.3641 19.8265 57.3641 19.8173 57.3548 19.8173C56.6802 19.1619 55.8346 18.6582 54.8849 18.364C54.5145 18.25 54.2196 17.9743 54.0771 17.6039C53.9346 17.2427 53.9724 16.8345 54.1719 16.5019C54.704 15.6086 54.9697 14.5828 54.9412 13.5284C54.865 10.9347 52.8797 8.67364 50.3243 8.27463C49.8684 8.20836 49.4124 8.18915 48.9565 8.22692C48.5576 8.26469 48.1487 8.10366 47.883 7.79949C47.6172 7.49532 47.5032 7.07717 47.598 6.67823C47.7213 6.12753 47.7597 5.55696 47.712 4.98704C47.4648 2.29847 45.2514 0.151413 42.5537 0.00890942C41.0335 -0.0765776 39.5803 0.455557 38.4783 1.50062C37.3762 2.54568 36.7685 3.96119 36.7685 5.4814C36.7685 6.96316 37.3477 8.3408 38.4027 9.386C38.697 9.68024 38.8394 10.0984 38.7639 10.5165C38.6877 10.9248 38.4219 11.2767 38.0416 11.4476C35.8375 12.4549 34.422 14.659 34.422 17.0811C34.4114 19.056 35.3239 20.861 36.9104 22.0394L36.9103 22.0389Z" fill="#403233"/>
<path d="M76.5348 12.6907C76.155 12.5198 75.8794 12.1685 75.8124 11.7597C75.7362 11.3415 75.8694 10.9233 76.1736 10.6291C77.2279 9.59332 77.8078 8.20637 77.8078 6.7245C77.8078 5.2043 77.1994 3.78875 76.0981 2.74372C74.996 1.69866 73.552 1.16653 72.0226 1.25201C69.3249 1.39449 67.1108 3.53224 66.8643 6.23015C66.8166 6.79078 66.8551 7.36069 66.969 7.92133C67.0545 8.31099 66.9498 8.72914 66.6841 9.03265C66.4183 9.33683 66.0187 9.49786 65.6105 9.46008C65.1546 9.42231 64.6987 9.43158 64.2428 9.50779C61.6875 9.90674 59.7013 12.1679 59.6258 14.7616C59.5973 15.8159 59.863 16.8425 60.3952 17.735C60.5947 18.077 60.6324 18.4759 60.4899 18.8463C60.3567 19.179 60.1003 19.4355 59.7776 19.5687C60.7179 20.9079 61.25 22.5329 61.25 24.2618C61.25 25.554 60.9558 26.7887 60.376 27.9384C60.3283 28.0239 60.319 28.1186 60.3283 28.2233C60.433 28.9742 60.423 29.7336 60.319 30.4844C60.0718 32.2326 59.2647 33.8098 58.0864 35.0159C58.6848 35.5951 59.3879 36.0417 60.1673 36.3366C63.1216 21.6965 70.9499 9.82071 71.3488 10.2024C71.7477 10.5821 63.5112 22.5337 62.1427 36.737C63.6344 36.794 65.0784 36.3188 66.2375 35.3877C66.9883 34.7794 68.0234 34.6654 68.869 35.0836C69.8001 35.5395 70.8074 35.7582 71.8618 35.7105C75.0062 35.5773 77.6 33.0219 77.771 29.8775C77.8372 28.6992 77.5715 27.5402 77.0016 26.5235C76.3839 25.4122 76.6596 24.0153 77.6669 23.2745C79.2534 22.0962 80.1653 20.2817 80.1653 18.3057C80.1547 15.9028 78.7299 13.6994 76.5352 12.692L76.5348 12.6907Z" fill="#403233"/>
<path d="M35.4463 44.1745C33.8883 40.2608 32.1687 37.1064 30.3165 34.7406C28.4636 32.3749 26.4689 30.7883 24.3503 29.9998C23.2768 29.6009 22.1554 29.4014 20.9872 29.4014C18.9918 29.4014 16.8548 29.9806 14.6029 31.1496C11.0496 32.9925 8.84537 35.4531 8.05685 38.4458C6.9071 42.8163 8.65525 48.6208 13.2537 55.6803C20.9872 67.5556 40.4821 86.7173 46.2772 92.3038C46.2964 92.323 46.3057 92.3323 46.3342 92.3131C46.3627 92.2939 46.3627 92.2846 46.3627 92.2654C45.1275 84.3145 40.7007 57.3435 35.4469 44.1754L35.4463 44.1745ZM16.8359 39.8618L10.8604 42.9592C10.7087 43.0354 10.5563 43.0732 10.3952 43.0732C10.0341 43.0732 9.68286 42.8737 9.50195 42.5318C9.24549 42.0381 9.43568 41.4297 9.92937 41.1825L15.9049 38.0851C16.3986 37.8287 17.0069 38.0189 17.2541 38.5125C17.5198 38.997 17.3296 39.6053 16.8359 39.8618V39.8618ZM29.3859 58.8809L23.4105 61.9784C23.2587 62.0546 23.1063 62.0924 22.9452 62.0924C22.5841 62.0924 22.2329 61.8929 22.052 61.5509C21.7955 61.0572 21.9857 60.4489 22.4794 60.2017L28.4549 57.1043C28.9486 56.8478 29.5569 57.038 29.8041 57.5317C30.0698 58.0254 29.8796 58.6238 29.3859 58.8809V58.8809ZM31.9035 43.6325L25.928 46.7299C25.7763 46.8062 25.6238 46.8439 25.4628 46.8439C25.1017 46.8439 24.7504 46.6445 24.5695 46.3025C24.3131 45.8088 24.5033 45.2005 24.9969 44.9533L30.9724 41.8559C31.4661 41.5994 32.0652 41.7896 32.3217 42.2833C32.5874 42.7684 32.3972 43.3761 31.9035 43.6325ZM40.7099 71.2596L34.7344 74.357C34.5827 74.4332 34.4302 74.471 34.2692 74.471C33.9081 74.471 33.5568 74.2715 33.3759 73.9296C33.1195 73.4359 33.3096 72.8276 33.8033 72.5711L39.7788 69.4737C40.2725 69.2172 40.8716 69.4074 41.1281 69.9011C41.3938 70.4048 41.2043 71.0032 40.7099 71.2596Z" fill="#403233"/>
<path d="M15.1821 20.6902C16.1794 21.384 16.2079 23.0368 15.9992 24.4808C16.4929 24.5 16.9872 24.6425 17.3484 25.0414C17.8805 25.6206 17.909 26.4477 17.4246 27.502C17.3583 27.6445 17.2914 27.787 17.2444 27.9387C17.9567 27.73 18.6691 27.5875 19.3629 27.502C19.3251 27.217 19.4199 26.9228 19.6286 26.7041C20.4265 25.8493 21.1773 24.7472 21.3384 24.2244C21.2151 24.2151 21.0057 24.2052 20.6922 24.2436C20.3218 24.2913 19.9513 24.1204 19.7419 23.8162C19.5332 23.5027 19.514 23.1038 19.6849 22.7804C20.3973 21.4597 20.7108 20.3105 20.7108 19.8447C20.5206 19.8731 20.1316 19.9679 19.447 20.3099C19.1528 20.4616 18.8009 20.4523 18.5067 20.2906C18.2125 20.1289 18.0223 19.8347 17.9938 19.5021C17.9461 19.0653 17.5471 17.9534 17.2337 17.5922C16.8825 17.9149 16.3689 18.9884 16.2741 19.4166C16.2078 19.7393 15.9892 20.0149 15.685 20.1389C15.3808 20.2721 15.0296 20.2336 14.7539 20.0534C14.2032 19.7022 13.8513 19.5497 13.6426 19.4835C13.7088 19.8062 13.7658 20.1296 13.7943 20.4338C14.3178 20.3291 14.7831 20.4146 15.182 20.6902L15.1821 20.6902Z" fill="#403233"/>
<path d="M7.02185 24.3851C7.31609 24.6224 7.44928 24.9935 7.38301 25.3639C7.3068 25.7344 7.04107 26.0293 6.67991 26.1333C6.36645 26.2281 6.1862 26.3135 6.08151 26.3705C6.43273 26.798 7.554 27.5104 8.62758 27.9762C8.96952 28.128 9.19749 28.4414 9.22598 28.8125C9.25447 29.183 9.0835 29.5348 8.77005 29.7343C8.60836 29.839 8.42811 29.9908 8.28562 30.124C8.33333 30.1333 8.39033 30.1525 8.45659 30.1618C9.33067 30.3612 10.1663 30.6555 10.9648 31.0358C11.7819 30.4275 12.6845 29.8675 13.6819 29.3446C14.0716 29.1359 14.4705 28.955 14.8602 28.784C15.0404 28.0524 15.2876 27.34 15.611 26.6461C15.6395 26.5891 15.6587 26.5321 15.6772 26.4844C15.4871 26.5129 15.2591 26.5606 15.0689 26.6269C14.7177 26.7502 14.328 26.6746 14.0616 26.4181C13.7859 26.171 13.672 25.7912 13.7674 25.4301C14.0523 24.2903 14.1663 22.9695 14.0523 22.4282C13.9476 22.4759 13.8052 22.5514 13.5964 22.6939C13.5871 22.7032 13.5871 22.7032 13.5772 22.7131L13.5394 22.7416C13.4732 22.7794 13.397 22.8178 13.3207 22.8463C13.216 22.8841 13.112 22.894 13.0073 22.894C12.5891 22.894 12.1902 22.6184 12.057 22.2002C12.0192 22.0862 11.9808 21.9722 11.9523 21.8583C11.9331 21.792 11.9238 21.7251 11.9145 21.6681V21.6588V21.621V21.5733C11.8767 20.8225 11.772 20.0916 11.6295 19.5594C11.6295 19.5502 11.6203 19.5402 11.6203 19.5309C11.611 19.5024 11.6011 19.4739 11.6011 19.4455C11.5156 19.1698 11.4394 19.0087 11.3824 18.904C11.2306 19.018 10.9357 19.303 10.5175 19.9206C10.3373 20.1963 10.0238 20.3573 9.69118 20.3673C9.35852 20.3673 9.04506 20.2056 8.86481 19.9305C8.60835 19.5793 7.72498 18.8 7.26907 18.6383C7.11732 19.0942 7.19286 20.2725 7.31678 20.6999C7.42149 21.0133 7.35456 21.3652 7.15509 21.6217C6.94634 21.8874 6.6329 22.0206 6.30022 22.0014C5.54939 21.9537 5.15047 22.0107 4.96094 22.0676C4.98016 22.1054 4.99871 22.1531 5.02721 22.2101C5.35921 22.8933 6.27106 23.786 7.02192 24.385L7.02185 24.3851Z" fill="#403233"/>
<path d="M7.78197 34.3028C8.2094 33.6759 8.71305 33.0774 9.27368 32.5069C8.86547 32.3551 8.43737 32.2312 8.00066 32.1271C6.87011 31.8707 6.23395 31.3386 6.09077 30.5692C5.99601 30.037 6.19547 29.5526 6.48043 29.1537C5.3214 28.4883 4.0292 27.5102 3.9722 26.3604C3.96292 26.1517 3.98147 25.8568 4.15245 25.5341C3.82973 25.2683 3.60175 25.1351 3.44934 25.0688C3.39235 25.259 3.33536 25.648 3.37313 26.4081C3.39235 26.7408 3.23993 27.0635 2.98347 27.263C2.71774 27.4625 2.37513 27.5195 2.05239 27.4148C1.63425 27.2816 0.456657 27.1961 0 27.3485C0.151755 27.8044 0.931076 28.6977 1.2823 28.9634C1.55797 29.1536 1.70972 29.4671 1.70972 29.7998C1.70972 30.1324 1.53875 30.4366 1.2538 30.6261C0.626898 31.0443 0.341942 31.3292 0.227956 31.481C0.26573 31.5002 0.313442 31.5287 0.370432 31.5572C1.05431 31.8707 2.32732 32.0224 3.28684 32.0509C3.65728 32.0602 3.99922 32.2789 4.16091 32.6115C4.32261 32.9535 4.29411 33.3524 4.06615 33.6473C3.87596 33.9038 3.7812 34.0748 3.72421 34.198C4.25634 34.3213 5.58643 34.2172 6.72612 33.9416C7.08729 33.8561 7.467 33.9701 7.71418 34.2457C7.75328 34.265 7.76256 34.2842 7.78178 34.3027L7.78197 34.3028Z" fill="#403233"/>
</svg>
